<svg width="100" height="100" xmlns="http://www.w3.org/2000/svg">
 <g>
  <title>Layer 1</title>
  <ellipse fill="#ffff00" stroke-width="1.5" cx="49.51316" cy="49.827824" id="svg_1" rx="50" ry="50" stroke="#000"/>
  <ellipse fill="#fff" stroke="#000" stroke-width="1.5" cx="58.709677" cy="208.709677" id="svg_2" ry="0.322581"/>
  <ellipse fill="#fff" stroke="#000" stroke-width="1.5" cx="42.580645" cy="192.903226" id="svg_3"/>
  <ellipse fill="#000000" stroke="#000000" stroke-width="1.5" cx="30" cy="30" id="svg_4" rx="10" ry="10"/>
  <ellipse fill="#000000" stroke="#000000" stroke-width="1.5" cx="70" cy="30" id="svg_5" rx="10" ry="10"/>
  <path fill="#ffff00" stroke-width="5" d="m20.27153,65c10.079052,9.701416 20.065098,14.708839 30.004417,14.787201c1.242413,0.009796 2.484097,-0.057426 3.725143,-0.202126c1.241043,-0.144699 2.481449,-0.366867 3.721306,-0.666977c1.239857,-0.30011 2.47916,-0.678154 3.71801,-1.13459c1.238846,-0.456436 2.477238,-0.991272 3.715256,-1.60495c1.238022,-0.613686 2.47567,-1.306229 3.713043,-2.078079c1.237373,-0.771851 2.474472,-1.623009 3.71138,-2.553947c1.236908,-0.930931 2.473625,-1.941635 3.710251,-3.03257c1.236618,-1.090942 2.473145,-2.262108 3.709663,-3.513962" id="svg_6" stroke="#000"/>
 </g>
</svg>